<svg width="28" height="25" viewBox="0 0 28 25" fill="none" xmlns="http://www.w3.org/2000/svg">
<g clip-path="url(#clip0_81_262)">
<path d="M8.82615 16.2651H8.8274C8.82845 16.2651 8.82949 16.265 8.83054 16.265H23.3815C23.7397 16.265 24.0546 16.0563 24.1531 15.7538L27.3634 5.88708C27.4325 5.67437 27.384 5.44568 27.2325 5.26913C27.0808 5.09257 26.8436 4.98869 26.5917 4.98869H6.97523L6.40152 2.7215C6.3198 2.39903 5.99417 2.16962 5.61797 2.16962H0.802567C0.359274 2.16962 0 2.48511 0 2.87438C0 3.26366 0.359274 3.57915 0.802567 3.57915H4.97424C5.07582 3.98091 7.71969 14.4287 7.87184 15.0298C7.01891 15.3554 6.42054 16.1022 6.42054 16.9697C6.42054 18.1355 7.50066 19.084 8.82824 19.084H23.3815C23.8247 19.084 24.184 18.7685 24.184 18.3793C24.184 17.99 23.8247 17.6745 23.3815 17.6745H8.82824C8.38578 17.6745 8.02567 17.3583 8.02567 16.9697C8.02567 16.5817 8.38453 16.2661 8.82615 16.2651ZM25.5277 6.39822L22.776 14.8554H9.47196L7.33178 6.39822H25.5277Z" fill="black"/>
<path d="M8.02563 21.1981C8.02563 22.3639 9.10576 23.3124 10.4333 23.3124C11.7609 23.3124 12.841 22.3639 12.841 21.1981C12.841 20.0323 11.7609 19.0838 10.4333 19.0838C9.10576 19.0838 8.02563 20.0323 8.02563 21.1981ZM10.4333 20.4933C10.8758 20.4933 11.2359 20.8096 11.2359 21.1981C11.2359 21.5866 10.8758 21.9029 10.4333 21.9029C9.99088 21.9029 9.63077 21.5866 9.63077 21.1981C9.63077 20.8096 9.99088 20.4933 10.4333 20.4933Z" fill="black"/>
<path d="M19.3685 21.1981C19.3685 22.3639 20.4487 23.3124 21.7762 23.3124C23.1038 23.3124 24.1839 22.3639 24.1839 21.1981C24.1839 20.0323 23.1038 19.0838 21.7762 19.0838C20.4487 19.0838 19.3685 20.0323 19.3685 21.1981ZM21.7762 20.4933C22.2187 20.4933 22.5788 20.8096 22.5788 21.1981C22.5788 21.5866 22.2187 21.9029 21.7762 21.9029C21.3338 21.9029 20.9737 21.5866 20.9737 21.1981C20.9737 20.8096 21.3338 20.4933 21.7762 20.4933Z" fill="black"/>
</g>
<defs>
<clipPath id="clip0_81_262">
<rect width="27.3943" height="24.0561" fill="white" transform="translate(0 0.712952)"/>
</clipPath>
</defs>
</svg>
